<svg xmlns="http://www.w3.org/2000/svg" xmlns:xlink="http://www.w3.org/1999/xlink" xmlns:lucid="lucid" width="561" height="543.14"><g transform="translate(380.49999999999994 660.5)" lucid:page-tab-id="0_0"><path d="M-360-640h152.2v144H-360z" fill="#fff"/><path d="M-360-574v27h152.2v-27M-360-522v26h152.2v-26" fill="#e6e6e6"/><path d="M-360-600v-40h152.2v40" fill="#1071e5"/><path d="M-360-640h152.2v144H-360zM-360-600h152.2" stroke="#333" fill="none"/><use xlink:href="#a" transform="matrix(1,0,0,1,-349.99999999999994,-640) translate(0 22.666666666666664)"/><use xlink:href="#b" transform="matrix(1,0,0,1,-354.99999999999994,-597.5) translate(0 13.21111111111111)"/><use xlink:href="#c" transform="matrix(1,0,0,1,-354.99999999999994,-597.5) translate(18.03641975308641 13.21111111111111)"/><use xlink:href="#d" transform="matrix(1,0,0,1,-354.99999999999994,-597.5) translate(54.10925925925923 13.21111111111111)"/><use xlink:href="#e" transform="matrix(1,0,0,1,-354.99999999999994,-571.5) translate(0 13.21111111111111)"/><use xlink:href="#f" transform="matrix(1,0,0,1,-354.99999999999994,-571.5) translate(33.88888888888887 13.21111111111111)"/><use xlink:href="#g" transform="matrix(1,0,0,1,-354.99999999999994,-545.5) translate(0 13.21111111111111)"/><use xlink:href="#h" transform="matrix(1,0,0,1,-354.99999999999994,-545.5) translate(31.59197530864196 13.21111111111111)"/><use xlink:href="#i" transform="matrix(1,0,0,1,-354.99999999999994,-519.5) translate(0 13.21111111111111)"/><use xlink:href="#j" transform="matrix(1,0,0,1,-354.99999999999994,-519.5) translate(71.50555555555552 13.21111111111111)"/><path d="M7.8-640H160v196H7.8z" fill="#fff"/><path d="M7.8-574v27H160v-27M7.8-522v27H160v-27M7.8-470v26H160v-26" fill="#e6e6e6"/><path d="M7.8-600v-40H160v40" fill="#1071e5"/><path d="M7.8-640H160v196H7.8zM7.8-600H160" stroke="#333" fill="none"/><use xlink:href="#k" transform="matrix(1,0,0,1,17.804878048780466,-640) translate(0 22.666666666666664)"/><use xlink:href="#b" transform="matrix(1,0,0,1,12.804878048780466,-597.5) translate(0 13.21111111111111)"/><use xlink:href="#c" transform="matrix(1,0,0,1,12.804878048780466,-597.5) translate(18.03641975308641 13.21111111111111)"/><use xlink:href="#d" transform="matrix(1,0,0,1,12.804878048780466,-597.5) translate(54.10925925925923 13.21111111111111)"/><use xlink:href="#l" transform="matrix(1,0,0,1,12.804878048780466,-571.5) translate(0 13.21111111111111)"/><use xlink:href="#f" transform="matrix(1,0,0,1,12.804878048780466,-571.5) translate(41.382098765432076 13.21111111111111)"/><use xlink:href="#m" transform="matrix(1,0,0,1,12.804878048780466,-545.5) translate(0 13.21111111111111)"/><use xlink:href="#f" transform="matrix(1,0,0,1,12.804878048780466,-545.5) translate(67.70246913580243 13.21111111111111)"/><use xlink:href="#n" transform="matrix(1,0,0,1,12.804878048780466,-519.5) translate(0 13.21111111111111)"/><use xlink:href="#o" transform="matrix(1,0,0,1,12.804878048780466,-519.5) translate(65.44320987654318 13.21111111111111)"/><use xlink:href="#p" transform="matrix(1,0,0,1,12.804878048780466,-493.5) translate(0 13.21111111111111)"/><use xlink:href="#f" transform="matrix(1,0,0,1,12.804878048780466,-493.5) translate(39.800617283950594 13.21111111111111)"/><use xlink:href="#i" transform="matrix(1,0,0,1,12.804878048780466,-467.5) translate(0 13.21111111111111)"/><use xlink:href="#j" transform="matrix(1,0,0,1,12.804878048780466,-467.5) translate(71.50555555555552 13.21111111111111)"/><path d="M-195.12-255.86h152.2v118h-152.2z" fill="#fff"/><path d="M-195.12-189.86v27h152.2v-27" fill="#e6e6e6"/><path d="M-195.12-215.86v-40h152.2v40" fill="#1071e5"/><path d="M-195.12-255.86h152.2v118h-152.2zM-195.12-215.86h152.2" stroke="#333" fill="none"/><use xlink:href="#q" transform="matrix(1,0,0,1,-185.1219512195121,-255.86289260166703) translate(0 22.666666666666664)"/><use xlink:href="#r" transform="matrix(1,0,0,1,-190.1219512195121,-213.36289260166703) translate(0 13.21111111111111)"/><use xlink:href="#c" transform="matrix(1,0,0,1,-190.1219512195121,-213.36289260166703) translate(46.57839506172837 13.21111111111111)"/><use xlink:href="#d" transform="matrix(1,0,0,1,-190.1219512195121,-213.36289260166703) translate(82.65123456790118 13.21111111111111)"/><use xlink:href="#s" transform="matrix(1,0,0,1,-190.1219512195121,-187.36289260166703) translate(0 13.21111111111111)"/><use xlink:href="#c" transform="matrix(1,0,0,1,-190.1219512195121,-187.36289260166703) translate(51.88765432098763 13.21111111111111)"/><use xlink:href="#d" transform="matrix(1,0,0,1,-190.1219512195121,-187.36289260166703) translate(87.96049382716045 13.21111111111111)"/><use xlink:href="#i" transform="matrix(1,0,0,1,-190.1219512195121,-161.36289260166703) translate(0 13.21111111111111)"/><use xlink:href="#j" transform="matrix(1,0,0,1,-190.1219512195121,-161.36289260166703) translate(71.50555555555552 13.21111111111111)"/><path d="M-319.43-475.5v253.32a12 12 0 0 0 12 12h72.3" stroke="#333" fill="none"/><path d="M-329.43-485.5h20M-319.43-495.5v20M-329.43-475.5h20" stroke="#333" fill="#fff"/><path d="M-195.85-200.18l-20-10 20-10" stroke="#333" fill="#fff" fill-opacity="0"/><path d="M-195.85-210.18h-20M-215.85-210.18c0 5.52-4.47 10-10 10-5.52 0-10-4.48-10-10s4.48-10 10-10c5.53 0 10 4.48 10 10" stroke="#333" fill="#fff"/><path d="M115.2-429.5v207.32a12 12 0 0 1-12 12H-2.94" stroke="#333" fill="none"/><path d="M105.2-439.5h20M115.2-449.5v20M105.2-429.5h20" stroke="#333" fill="#fff"/><path d="M-42.2-220.18l20 10-20 10" stroke="#333" fill="#fff" fill-opacity="0"/><path d="M-42.2-210.18h20M-2.2-210.18c0 5.52-4.48 10-10 10-5.53 0-10-4.48-10-10s4.47-10 10-10c5.52 0 10 4.48 10 10" stroke="#333" fill="#fff"/><path d="M-195.12-418.38h152.2v118h-152.2z" fill="#fff"/><path d="M-195.12-352.38v27h152.2v-27" fill="#e6e6e6"/><path d="M-195.12-378.38v-40h152.2v40" fill="#1071e5"/><path d="M-195.12-418.38h152.2v118h-152.2zM-195.12-378.38h152.2" stroke="#333" fill="none"/><use xlink:href="#t" transform="matrix(1,0,0,1,-185.1219512195121,-418.3824380394233) translate(0 22.666666666666664)"/><use xlink:href="#r" transform="matrix(1,0,0,1,-190.1219512195121,-375.8824380394233) translate(0 13.21111111111111)"/><use xlink:href="#c" transform="matrix(1,0,0,1,-190.1219512195121,-375.8824380394233) translate(46.57839506172837 13.21111111111111)"/><use xlink:href="#d" transform="matrix(1,0,0,1,-190.1219512195121,-375.8824380394233) translate(82.65123456790118 13.21111111111111)"/><g><use xlink:href="#s" transform="matrix(1,0,0,1,-190.1219512195121,-349.8824380394233) translate(0 13.21111111111111)"/><use xlink:href="#c" transform="matrix(1,0,0,1,-190.1219512195121,-349.8824380394233) translate(51.88765432098763 13.21111111111111)"/><use xlink:href="#d" transform="matrix(1,0,0,1,-190.1219512195121,-349.8824380394233) translate(87.96049382716045 13.21111111111111)"/></g><g><use xlink:href="#i" transform="matrix(1,0,0,1,-190.1219512195121,-323.8824380394233) translate(0 13.21111111111111)"/><use xlink:href="#j" transform="matrix(1,0,0,1,-190.1219512195121,-323.8824380394233) translate(71.50555555555552 13.21111111111111)"/></g><path d="M-2.93-372.7h46.05a12 12 0 0 0 12-12v-38.8" stroke="#333" fill="none"/><path d="M-42.2-382.7l20 10-20 10" stroke="#333" fill="#fff" fill-opacity="0"/><path d="M-42.2-372.7h20M-2.2-372.7c0 5.52-4.48 10-10 10-5.53 0-10-4.48-10-10s4.47-10 10-10c5.52 0 10 4.48 10 10M45.12-433.5h20M55.12-443.5v20M45.12-423.5h20" stroke="#333" fill="#fff"/><path d="M-258.53-475.5v90.8a12 12 0 0 0 12 12h30.9" stroke="#333" fill="none"/><path d="M-268.53-485.5h20M-258.53-495.5v20M-268.53-475.5h20M-205.62-382.7v20M-195.62-372.7h-20M-215.62-382.7v20" stroke="#333" fill="#fff"/><defs><path fill="#fff" d="M101-234c-31-9-42 10-38 44h38v23H63V0H32v-167H5v-23h27c-7-52 17-82 69-68v24" id="u"/><path fill="#fff" d="M24-231v-30h32v30H24zM24 0v-190h32V0H24" id="v"/><path fill="#fff" d="M24 0v-261h32V0H24" id="w"/><path fill="#fff" d="M100-194c63 0 86 42 84 106H49c0 40 14 67 53 68 26 1 43-12 49-29l28 8c-11 28-37 45-77 45C44 4 14-33 15-96c1-61 26-98 85-98zm52 81c6-60-76-77-97-28-3 7-6 17-6 28h103" id="x"/><g id="a"><use transform="matrix(0.03703703703703702,0,0,0.03703703703703702,0,0)" xlink:href="#u"/><use transform="matrix(0.03703703703703702,0,0,0.03703703703703702,3.703703703703702,0)" xlink:href="#v"/><use transform="matrix(0.03703703703703702,0,0,0.03703703703703702,6.629629629629625,0)" xlink:href="#w"/><use transform="matrix(0.03703703703703702,0,0,0.03703703703703702,9.55555555555555,0)" xlink:href="#x"/></g><path fill="#333" d="M24-231v-30h32v30H24zM24 0v-190h32V0H24" id="y"/><path fill="#333" d="M85-194c31 0 48 13 60 33l-1-100h32l1 261h-30c-2-10 0-23-3-31C134-8 116 4 85 4 32 4 16-35 15-94c0-66 23-100 70-100zm9 24c-40 0-46 34-46 75 0 40 6 74 45 74 42 0 51-32 51-76 0-42-9-74-50-73" id="z"/><path fill="#333" d="M33-154v-36h34v36H33zM33 0v-36h34V0H33" id="A"/><g id="b"><use transform="matrix(0.037654320987654304,0,0,0.037654320987654304,0,0)" xlink:href="#y"/><use transform="matrix(0.037654320987654304,0,0,0.037654320987654304,2.97469135802469,0)" xlink:href="#z"/><use transform="matrix(0.037654320987654304,0,0,0.037654320987654304,10.50555555555555,0)" xlink:href="#A"/></g><path fill="#333" d="M115-194c53 0 69 39 70 98 0 66-23 100-70 100C84 3 66-7 56-30L54 0H23l1-261h32v101c10-23 28-34 59-34zm-8 174c40 0 45-34 45-75 0-40-5-75-45-74-42 0-51 32-51 76 0 43 10 73 51 73" id="B"/><path fill="#333" d="M177-190C167-65 218 103 67 71c-23-6-38-20-44-43l32-5c15 47 100 32 89-28v-30C133-14 115 1 83 1 29 1 15-40 15-95c0-56 16-97 71-98 29-1 48 16 59 35 1-10 0-23 2-32h30zM94-22c36 0 50-32 50-73 0-42-14-75-50-75-39 0-46 34-46 75s6 73 46 73" id="C"/><path fill="#333" d="M117-194c89-4 53 116 60 194h-32v-121c0-31-8-49-39-48C34-167 62-67 57 0H25l-1-190h30c1 10-1 24 2 32 11-22 29-35 61-36" id="D"/><path fill="#333" d="M59-47c-2 24 18 29 38 22v24C64 9 27 4 27-40v-127H5v-23h24l9-43h21v43h35v23H59v120" id="E"/><g id="c"><use transform="matrix(0.037654320987654304,0,0,0.037654320987654304,0,0)" xlink:href="#B"/><use transform="matrix(0.037654320987654304,0,0,0.037654320987654304,7.53086419753086,0)" xlink:href="#y"/><use transform="matrix(0.037654320987654304,0,0,0.037654320987654304,10.50555555555555,0)" xlink:href="#C"/><use transform="matrix(0.037654320987654304,0,0,0.037654320987654304,18.03641975308641,0)" xlink:href="#y"/><use transform="matrix(0.037654320987654304,0,0,0.037654320987654304,21.0111111111111,0)" xlink:href="#D"/><use transform="matrix(0.037654320987654304,0,0,0.037654320987654304,28.54197530864196,0)" xlink:href="#E"/></g><path fill="#333" d="M87 75C49 33 22-17 22-94c0-76 28-126 65-167h31c-38 41-64 92-64 168S80 34 118 75H87" id="F"/><path fill="#333" d="M30-248c87 1 191-15 191 75 0 78-77 80-158 76V0H30v-248zm33 125c57 0 124 11 124-50 0-59-68-47-124-48v98" id="G"/><path fill="#333" d="M194 0L95-120 63-95V0H30v-248h33v124l119-124h40L117-140 236 0h-42" id="H"/><path fill="#333" d="M33-261c38 41 65 92 65 168S71 34 33 75H2C39 34 66-17 66-93S39-220 2-261h31" id="I"/><g id="d"><use transform="matrix(0.037654320987654304,0,0,0.037654320987654304,0,0)" xlink:href="#F"/><use transform="matrix(0.037654320987654304,0,0,0.037654320987654304,4.480864197530862,0)" xlink:href="#G"/><use transform="matrix(0.037654320987654304,0,0,0.037654320987654304,13.517901234567894,0)" xlink:href="#H"/><use transform="matrix(0.037654320987654304,0,0,0.037654320987654304,22.554938271604925,0)" xlink:href="#I"/></g><path fill="#333" d="M115-194c55 1 70 41 70 98S169 2 115 4C84 4 66-9 55-30l1 105H24l-1-265h31l2 30c10-21 28-34 59-34zm-8 174c40 0 45-34 45-75s-6-73-45-74c-42 0-51 32-51 76 0 43 10 73 51 73" id="J"/><path fill="#333" d="M141-36C126-15 110 5 73 4 37 3 15-17 15-53c-1-64 63-63 125-63 3-35-9-54-41-54-24 1-41 7-42 31l-33-3c5-37 33-52 76-52 45 0 72 20 72 64v82c-1 20 7 32 28 27v20c-31 9-61-2-59-35zM48-53c0 20 12 33 32 33 41-3 63-29 60-74-43 2-92-5-92 41" id="K"/><path fill="#333" d="M106-169C34-169 62-67 57 0H25v-261h32l-1 103c12-21 28-36 61-36 89 0 53 116 60 194h-32v-121c2-32-8-49-39-48" id="L"/><g id="e"><use transform="matrix(0.037654320987654304,0,0,0.037654320987654304,0,0)" xlink:href="#J"/><use transform="matrix(0.037654320987654304,0,0,0.037654320987654304,7.53086419753086,0)" xlink:href="#K"/><use transform="matrix(0.037654320987654304,0,0,0.037654320987654304,15.06172839506172,0)" xlink:href="#E"/><use transform="matrix(0.037654320987654304,0,0,0.037654320987654304,18.82716049382715,0)" xlink:href="#L"/><use transform="matrix(0.037654320987654304,0,0,0.037654320987654304,26.35802469135801,0)" xlink:href="#A"/></g><path fill="#333" d="M108 0H70L1-190h34L89-25l56-165h34" id="M"/><path fill="#333" d="M114-163C36-179 61-72 57 0H25l-1-190h30c1 12-1 29 2 39 6-27 23-49 58-41v29" id="N"/><path fill="#333" d="M96-169c-40 0-48 33-48 73s9 75 48 75c24 0 41-14 43-38l32 2c-6 37-31 61-74 61-59 0-76-41-82-99-10-93 101-131 147-64 4 7 5 14 7 22l-32 3c-4-21-16-35-41-35" id="O"/><g id="f"><use transform="matrix(0.037654320987654304,0,0,0.037654320987654304,0,0)" xlink:href="#M"/><use transform="matrix(0.037654320987654304,0,0,0.037654320987654304,6.777777777777775,0)" xlink:href="#K"/><use transform="matrix(0.037654320987654304,0,0,0.037654320987654304,14.308641975308635,0)" xlink:href="#N"/><use transform="matrix(0.037654320987654304,0,0,0.037654320987654304,18.7895061728395,0)" xlink:href="#O"/><use transform="matrix(0.037654320987654304,0,0,0.037654320987654304,25.567283950617274,0)" xlink:href="#L"/><use transform="matrix(0.037654320987654304,0,0,0.037654320987654304,33.098148148148134,0)" xlink:href="#K"/><use transform="matrix(0.037654320987654304,0,0,0.037654320987654304,40.629012345678994,0)" xlink:href="#N"/></g><path fill="#333" d="M135-143c-3-34-86-38-87 0 15 53 115 12 119 90S17 21 10-45l28-5c4 36 97 45 98 0-10-56-113-15-118-90-4-57 82-63 122-42 12 7 21 19 24 35" id="P"/><path fill="#333" d="M9 0v-24l116-142H16v-24h144v24L44-24h123V0H9" id="Q"/><path fill="#333" d="M100-194c63 0 86 42 84 106H49c0 40 14 67 53 68 26 1 43-12 49-29l28 8c-11 28-37 45-77 45C44 4 14-33 15-96c1-61 26-98 85-98zm52 81c6-60-76-77-97-28-3 7-6 17-6 28h103" id="R"/><g id="g"><use transform="matrix(0.037654320987654304,0,0,0.037654320987654304,0,0)" xlink:href="#P"/><use transform="matrix(0.037654320987654304,0,0,0.037654320987654304,6.777777777777775,0)" xlink:href="#y"/><use transform="matrix(0.037654320987654304,0,0,0.037654320987654304,9.752469135802464,0)" xlink:href="#Q"/><use transform="matrix(0.037654320987654304,0,0,0.037654320987654304,16.53024691358024,0)" xlink:href="#R"/><use transform="matrix(0.037654320987654304,0,0,0.037654320987654304,24.0611111111111,0)" xlink:href="#A"/></g><g id="h"><use transform="matrix(0.037654320987654304,0,0,0.037654320987654304,0,0)" xlink:href="#B"/><use transform="matrix(0.037654320987654304,0,0,0.037654320987654304,7.53086419753086,0)" xlink:href="#y"/><use transform="matrix(0.037654320987654304,0,0,0.037654320987654304,10.50555555555555,0)" xlink:href="#C"/><use transform="matrix(0.037654320987654304,0,0,0.037654320987654304,18.03641975308641,0)" xlink:href="#y"/><use transform="matrix(0.037654320987654304,0,0,0.037654320987654304,21.0111111111111,0)" xlink:href="#D"/><use transform="matrix(0.037654320987654304,0,0,0.037654320987654304,28.54197530864196,0)" xlink:href="#E"/></g><path fill="#333" d="M-5 72V49h209v23H-5" id="S"/><g id="i"><use transform="matrix(0.037654320987654304,0,0,0.037654320987654304,0,0)" xlink:href="#O"/><use transform="matrix(0.037654320987654304,0,0,0.037654320987654304,6.777777777777775,0)" xlink:href="#N"/><use transform="matrix(0.037654320987654304,0,0,0.037654320987654304,11.258641975308638,0)" xlink:href="#R"/><use transform="matrix(0.037654320987654304,0,0,0.037654320987654304,18.7895061728395,0)" xlink:href="#K"/><use transform="matrix(0.037654320987654304,0,0,0.037654320987654304,26.32037037037036,0)" xlink:href="#E"/><use transform="matrix(0.037654320987654304,0,0,0.037654320987654304,30.08580246913579,0)" xlink:href="#R"/><use transform="matrix(0.037654320987654304,0,0,0.037654320987654304,37.616666666666646,0)" xlink:href="#z"/><use transform="matrix(0.037654320987654304,0,0,0.037654320987654304,45.14753086419751,0)" xlink:href="#S"/><use transform="matrix(0.037654320987654304,0,0,0.037654320987654304,52.67839506172836,0)" xlink:href="#K"/><use transform="matrix(0.037654320987654304,0,0,0.037654320987654304,60.20925925925922,0)" xlink:href="#E"/><use transform="matrix(0.037654320987654304,0,0,0.037654320987654304,63.97469135802465,0)" xlink:href="#A"/></g><path fill="#333" d="M210-169c-67 3-38 105-44 169h-31v-121c0-29-5-50-35-48C34-165 62-65 56 0H25l-1-190h30c1 10-1 24 2 32 10-44 99-50 107 0 11-21 27-35 58-36 85-2 47 119 55 194h-31v-121c0-29-5-49-35-48" id="T"/><g id="j"><use transform="matrix(0.037654320987654304,0,0,0.037654320987654304,0,0)" xlink:href="#E"/><use transform="matrix(0.037654320987654304,0,0,0.037654320987654304,3.76543209876543,0)" xlink:href="#y"/><use transform="matrix(0.037654320987654304,0,0,0.037654320987654304,6.74012345679012,0)" xlink:href="#T"/><use transform="matrix(0.037654320987654304,0,0,0.037654320987654304,17.998765432098757,0)" xlink:href="#R"/><use transform="matrix(0.037654320987654304,0,0,0.037654320987654304,25.529629629629618,0)" xlink:href="#P"/><use transform="matrix(0.037654320987654304,0,0,0.037654320987654304,32.307407407407396,0)" xlink:href="#E"/><use transform="matrix(0.037654320987654304,0,0,0.037654320987654304,36.072839506172826,0)" xlink:href="#K"/><use transform="matrix(0.037654320987654304,0,0,0.037654320987654304,43.60370370370369,0)" xlink:href="#T"/><use transform="matrix(0.037654320987654304,0,0,0.037654320987654304,54.86234567901232,0)" xlink:href="#J"/></g><path fill="#fff" d="M84 4C-5 8 30-112 23-190h32v120c0 31 7 50 39 49 72-2 45-101 50-169h31l1 190h-30c-1-10 1-25-2-33-11 22-28 36-60 37" id="U"/><path fill="#fff" d="M135-143c-3-34-86-38-87 0 15 53 115 12 119 90S17 21 10-45l28-5c4 36 97 45 98 0-10-56-113-15-118-90-4-57 82-63 122-42 12 7 21 19 24 35" id="V"/><path fill="#fff" d="M114-163C36-179 61-72 57 0H25l-1-190h30c1 12-1 29 2 39 6-27 23-49 58-41v29" id="W"/><g id="k"><use transform="matrix(0.03703703703703702,0,0,0.03703703703703702,0,0)" xlink:href="#U"/><use transform="matrix(0.03703703703703702,0,0,0.03703703703703702,7.407407407407404,0)" xlink:href="#V"/><use transform="matrix(0.03703703703703702,0,0,0.03703703703703702,14.074074074074067,0)" xlink:href="#x"/><use transform="matrix(0.03703703703703702,0,0,0.03703703703703702,21.481481481481474,0)" xlink:href="#W"/></g><g id="l"><use transform="matrix(0.037654320987654304,0,0,0.037654320987654304,0,0)" xlink:href="#D"/><use transform="matrix(0.037654320987654304,0,0,0.037654320987654304,7.53086419753086,0)" xlink:href="#K"/><use transform="matrix(0.037654320987654304,0,0,0.037654320987654304,15.06172839506172,0)" xlink:href="#T"/><use transform="matrix(0.037654320987654304,0,0,0.037654320987654304,26.320370370370355,0)" xlink:href="#R"/><use transform="matrix(0.037654320987654304,0,0,0.037654320987654304,33.851234567901216,0)" xlink:href="#A"/></g><path fill="#333" d="M84 4C-5 8 30-112 23-190h32v120c0 31 7 50 39 49 72-2 45-101 50-169h31l1 190h-30c-1-10 1-25-2-33-11 22-28 36-60 37" id="X"/><g id="m"><use transform="matrix(0.037654320987654304,0,0,0.037654320987654304,0,0)" xlink:href="#X"/><use transform="matrix(0.037654320987654304,0,0,0.037654320987654304,7.53086419753086,0)" xlink:href="#P"/><use transform="matrix(0.037654320987654304,0,0,0.037654320987654304,14.308641975308635,0)" xlink:href="#R"/><use transform="matrix(0.037654320987654304,0,0,0.037654320987654304,21.839506172839496,0)" xlink:href="#N"/><use transform="matrix(0.037654320987654304,0,0,0.037654320987654304,26.32037037037036,0)" xlink:href="#D"/><use transform="matrix(0.037654320987654304,0,0,0.037654320987654304,33.851234567901216,0)" xlink:href="#K"/><use transform="matrix(0.037654320987654304,0,0,0.037654320987654304,41.38209876543208,0)" xlink:href="#T"/><use transform="matrix(0.037654320987654304,0,0,0.037654320987654304,52.64074074074071,0)" xlink:href="#R"/><use transform="matrix(0.037654320987654304,0,0,0.037654320987654304,60.17160493827157,0)" xlink:href="#A"/></g><path fill="#333" d="M206 0h-36l-40-164L89 0H53L-1-190h32L70-26l43-164h34l41 164 42-164h31" id="Y"/><path fill="#333" d="M100-194c62-1 85 37 85 99 1 63-27 99-86 99S16-35 15-95c0-66 28-99 85-99zM99-20c44 1 53-31 53-75 0-43-8-75-51-75s-53 32-53 75 10 74 51 75" id="Z"/><g id="n"><use transform="matrix(0.037654320987654304,0,0,0.037654320987654304,0,0)" xlink:href="#J"/><use transform="matrix(0.037654320987654304,0,0,0.037654320987654304,7.53086419753086,0)" xlink:href="#K"/><use transform="matrix(0.037654320987654304,0,0,0.037654320987654304,15.06172839506172,0)" xlink:href="#P"/><use transform="matrix(0.037654320987654304,0,0,0.037654320987654304,21.839506172839496,0)" xlink:href="#P"/><use transform="matrix(0.037654320987654304,0,0,0.037654320987654304,28.61728395061727,0)" xlink:href="#Y"/><use transform="matrix(0.037654320987654304,0,0,0.037654320987654304,38.369753086419735,0)" xlink:href="#Z"/><use transform="matrix(0.037654320987654304,0,0,0.037654320987654304,45.900617283950595,0)" xlink:href="#N"/><use transform="matrix(0.037654320987654304,0,0,0.037654320987654304,50.38148148148146,0)" xlink:href="#z"/><use transform="matrix(0.037654320987654304,0,0,0.037654320987654304,57.91234567901232,0)" xlink:href="#A"/></g><g id="o"><use transform="matrix(0.037654320987654304,0,0,0.037654320987654304,0,0)" xlink:href="#O"/><use transform="matrix(0.037654320987654304,0,0,0.037654320987654304,6.777777777777775,0)" xlink:href="#L"/><use transform="matrix(0.037654320987654304,0,0,0.037654320987654304,14.308641975308635,0)" xlink:href="#K"/><use transform="matrix(0.037654320987654304,0,0,0.037654320987654304,21.839506172839496,0)" xlink:href="#N"/></g><path fill="#333" d="M24 0v-261h32V0H24" id="aa"/><g id="p"><use transform="matrix(0.037654320987654304,0,0,0.037654320987654304,0,0)" xlink:href="#R"/><use transform="matrix(0.037654320987654304,0,0,0.037654320987654304,7.53086419753086,0)" xlink:href="#T"/><use transform="matrix(0.037654320987654304,0,0,0.037654320987654304,18.789506172839495,0)" xlink:href="#K"/><use transform="matrix(0.037654320987654304,0,0,0.037654320987654304,26.320370370370355,0)" xlink:href="#y"/><use transform="matrix(0.037654320987654304,0,0,0.037654320987654304,29.295061728395044,0)" xlink:href="#aa"/><use transform="matrix(0.037654320987654304,0,0,0.037654320987654304,32.26975308641973,0)" xlink:href="#A"/></g><path fill="#fff" d="M-5 72V49h209v23H-5" id="ab"/><path fill="#fff" d="M115-194c55 1 70 41 70 98S169 2 115 4C84 4 66-9 55-30l1 105H24l-1-265h31l2 30c10-21 28-34 59-34zm-8 174c40 0 45-34 45-75s-6-73-45-74c-42 0-51 32-51 76 0 43 10 73 51 73" id="ac"/><path fill="#fff" d="M210-169c-67 3-38 105-44 169h-31v-121c0-29-5-50-35-48C34-165 62-65 56 0H25l-1-190h30c1 10-1 24 2 32 10-44 99-50 107 0 11-21 27-35 58-36 85-2 47 119 55 194h-31v-121c0-29-5-49-35-48" id="ad"/><path fill="#fff" d="M100-194c62-1 85 37 85 99 1 63-27 99-86 99S16-35 15-95c0-66 28-99 85-99zM99-20c44 1 53-31 53-75 0-43-8-75-51-75s-53 32-53 75 10 74 51 75" id="ae"/><path fill="#fff" d="M117-194c89-4 53 116 60 194h-32v-121c0-31-8-49-39-48C34-167 62-67 57 0H25l-1-190h30c1 10-1 24 2 32 11-22 29-35 61-36" id="af"/><g id="q"><use transform="matrix(0.03703703703703702,0,0,0.03703703703703702,0,0)" xlink:href="#u"/><use transform="matrix(0.03703703703703702,0,0,0.03703703703703702,3.703703703703702,0)" xlink:href="#v"/><use transform="matrix(0.03703703703703702,0,0,0.03703703703703702,6.629629629629625,0)" xlink:href="#w"/><use transform="matrix(0.03703703703703702,0,0,0.03703703703703702,9.55555555555555,0)" xlink:href="#x"/><use transform="matrix(0.03703703703703702,0,0,0.03703703703703702,16.962962962962955,0)" xlink:href="#ab"/><use transform="matrix(0.03703703703703702,0,0,0.03703703703703702,24.37037037037036,0)" xlink:href="#ac"/><use transform="matrix(0.03703703703703702,0,0,0.03703703703703702,31.777777777777764,0)" xlink:href="#x"/><use transform="matrix(0.03703703703703702,0,0,0.03703703703703702,39.18518518518517,0)" xlink:href="#W"/><use transform="matrix(0.03703703703703702,0,0,0.03703703703703702,43.592592592592574,0)" xlink:href="#ad"/><use transform="matrix(0.03703703703703702,0,0,0.03703703703703702,54.66666666666664,0)" xlink:href="#v"/><use transform="matrix(0.03703703703703702,0,0,0.03703703703703702,57.59259259259257,0)" xlink:href="#V"/><use transform="matrix(0.03703703703703702,0,0,0.03703703703703702,64.25925925925922,0)" xlink:href="#V"/><use transform="matrix(0.03703703703703702,0,0,0.03703703703703702,70.92592592592588,0)" xlink:href="#v"/><use transform="matrix(0.03703703703703702,0,0,0.03703703703703702,73.8518518518518,0)" xlink:href="#ae"/><use transform="matrix(0.03703703703703702,0,0,0.03703703703703702,81.25925925925921,0)" xlink:href="#af"/></g><path fill="#333" d="M101-234c-31-9-42 10-38 44h38v23H63V0H32v-167H5v-23h27c-7-52 17-82 69-68v24" id="ag"/><g id="r"><use transform="matrix(0.037654320987654304,0,0,0.037654320987654304,0,0)" xlink:href="#ag"/><use transform="matrix(0.037654320987654304,0,0,0.037654320987654304,3.76543209876543,0)" xlink:href="#y"/><use transform="matrix(0.037654320987654304,0,0,0.037654320987654304,6.74012345679012,0)" xlink:href="#aa"/><use transform="matrix(0.037654320987654304,0,0,0.037654320987654304,9.71481481481481,0)" xlink:href="#R"/><use transform="matrix(0.037654320987654304,0,0,0.037654320987654304,17.24567901234567,0)" xlink:href="#S"/><use transform="matrix(0.037654320987654304,0,0,0.037654320987654304,24.77654320987653,0)" xlink:href="#y"/><use transform="matrix(0.037654320987654304,0,0,0.037654320987654304,27.751234567901218,0)" xlink:href="#z"/><use transform="matrix(0.037654320987654304,0,0,0.037654320987654304,35.28209876543208,0)" xlink:href="#A"/></g><g id="s"><use transform="matrix(0.037654320987654304,0,0,0.037654320987654304,0,0)" xlink:href="#X"/><use transform="matrix(0.037654320987654304,0,0,0.037654320987654304,7.53086419753086,0)" xlink:href="#P"/><use transform="matrix(0.037654320987654304,0,0,0.037654320987654304,14.308641975308635,0)" xlink:href="#R"/><use transform="matrix(0.037654320987654304,0,0,0.037654320987654304,21.839506172839496,0)" xlink:href="#N"/><use transform="matrix(0.037654320987654304,0,0,0.037654320987654304,26.32037037037036,0)" xlink:href="#S"/><use transform="matrix(0.037654320987654304,0,0,0.037654320987654304,33.851234567901216,0)" xlink:href="#y"/><use transform="matrix(0.037654320987654304,0,0,0.037654320987654304,36.82592592592591,0)" xlink:href="#z"/><use transform="matrix(0.037654320987654304,0,0,0.037654320987654304,44.35679012345677,0)" xlink:href="#A"/></g><path fill="#fff" d="M206 0h-36l-40-164L89 0H53L-1-190h32L70-26l43-164h34l41 164 42-164h31" id="ah"/><g id="t"><use transform="matrix(0.03703703703703702,0,0,0.03703703703703702,0,0)" xlink:href="#u"/><use transform="matrix(0.03703703703703702,0,0,0.03703703703703702,3.703703703703702,0)" xlink:href="#v"/><use transform="matrix(0.03703703703703702,0,0,0.03703703703703702,6.629629629629625,0)" xlink:href="#w"/><use transform="matrix(0.03703703703703702,0,0,0.03703703703703702,9.55555555555555,0)" xlink:href="#x"/><use transform="matrix(0.03703703703703702,0,0,0.03703703703703702,16.962962962962955,0)" xlink:href="#ab"/><use transform="matrix(0.03703703703703702,0,0,0.03703703703703702,24.37037037037036,0)" xlink:href="#ae"/><use transform="matrix(0.03703703703703702,0,0,0.03703703703703702,31.777777777777764,0)" xlink:href="#ah"/><use transform="matrix(0.03703703703703702,0,0,0.03703703703703702,41.37037037037035,0)" xlink:href="#af"/><use transform="matrix(0.03703703703703702,0,0,0.03703703703703702,48.77777777777776,0)" xlink:href="#x"/><use transform="matrix(0.03703703703703702,0,0,0.03703703703703702,56.18518518518516,0)" xlink:href="#W"/></g></defs></g></svg>