<svg xmlns="http://www.w3.org/2000/svg" xmlns:xlink="http://www.w3.org/1999/xlink" xmlns:lucid="lucid" width="514.91" height="582"><g transform="translate(-6.087365565847705 0.9999999999999964)" lucid:page-tab-id="yMqBN2yP9OoY"><path d="M191.32 25a5 5 0 0 1 5-5h155.16a5 5 0 0 1 5 5v27.1a5 5 0 0 1-5 5H196.32a5 5 0 0 1-5-5z" stroke="#000" stroke-width="2" fill="#19967d" fill-opacity=".18"/><use xlink:href="#a" transform="matrix(1,0,0,1,196.323165095599,25.000000000000004) translate(61.749999999999986 20.330000000000013)"/><path d="M390.1 355.3c0 55.12-50.37 99.8-112.5 99.8s-112.5-44.69-112.5-99.8c0-55.13 50.37-99.82 112.5-99.82s112.5 44.7 112.5 99.8z" stroke="#000" stroke-width="2" fill="#19967d" fill-opacity=".18"/><use xlink:href="#b" transform="matrix(1,0,0,1,170.10810897454104,260.48418444196113) translate(82.53999999999999 98.205)"/><path d="M443.75 355.3c0 82.68-75.54 149.7-168.73 149.7-93.2 0-168.74-67.02-168.74-149.7 0-82.7 75.55-149.72 168.74-149.72 93.2 0 168.73 67.03 168.73 149.7z" stroke="#000" stroke-width="2" fill="#19967d" fill-opacity=".18"/><use xlink:href="#c" transform="matrix(1,0,0,1,111.27996913837856,210.57990379476217) translate(126.73450000000001 15.080000000000004)"/><path d="M500 360.38C500 470.63 399.27 560 275.02 560c-124.26 0-225-89.37-225-199.62 0-110.24 100.74-199.6 225-199.6 124.25 0 224.98 89.36 224.98 199.6z" stroke="#000" stroke-width="2" fill="#19967d" fill-opacity=".18"/><use xlink:href="#d" transform="matrix(1,0,0,1,55.03425044386128,165.76575482240912) translate(174.7715 15.080000000000004)"/><path d="M273.9 59.1v10a.56.56 0 0 0 .56.56.56.56 0 0 1 .56.56v71.04" stroke="#c92d39" stroke-width="2" fill="none"/><path d="M274.9 59.13h-2V58.1h2z" stroke="#c92d39" stroke-width=".05" fill="#c92d39"/><path d="M275.02 156.53l-4.64-14.27h9.27z" stroke="#c92d39" stroke-width="2" fill="#c92d39"/><path d="M189.53 236.15a5 5 0 0 1 5-5h166.14a5 5 0 0 1 5 5v32.23a5 5 0 0 1-5 5H194.53a5 5 0 0 1-5-5z" stroke="#000" stroke-opacity="0" stroke-width="2" fill="#fff" fill-opacity="0"/><use xlink:href="#e" transform="matrix(1,0,0,1,194.5323348072942,236.14863223361354) translate(53.62599999999999 15.080000000000004)"/><use xlink:href="#f" transform="matrix(1,0,0,1,194.5323348072942,236.14863223361354) translate(80.05499999999999 15.080000000000004)"/><path d="M185.83 362.84a5 5 0 0 1 5-5h166.14a5 5 0 0 1 5 5v38.48a5 5 0 0 1-5 5H190.83a5 5 0 0 1-5-5z" stroke="#000" stroke-opacity="0" stroke-width="2" fill="#fff" fill-opacity="0"/><use xlink:href="#g" transform="matrix(1,0,0,1,190.83354755649492,362.83781157378166) translate(18.610499999999988 15.080000000000004)"/><use xlink:href="#h" transform="matrix(1,0,0,1,190.83354755649492,362.83781157378166) translate(88.0305 15.080000000000004)"/><use xlink:href="#i" transform="matrix(1,0,0,1,190.83354755649492,362.83781157378166) translate(61.01649999999999 34.32000000000001)"/><path d="M48.1 357.83h-39 136.56" stroke="#000" stroke-width="2" fill="none"/><path d="M49.07 358.83h-1v-2h1.04z" stroke="#000" stroke-width=".05"/><path d="M160.93 357.84l-14.27 4.64v-9.27z" stroke="#000" stroke-width="2"/><path d="M179.67 179.84a5 5 0 0 1 5-5H350.8a5 5 0 0 1 5 5v32.23a5 5 0 0 1-5 5H184.67a5 5 0 0 1-5-5z" stroke="#000" stroke-opacity="0" stroke-width="2" fill="#fff" fill-opacity="0"/><g><use xlink:href="#j" transform="matrix(1,0,0,1,184.66931210194645,179.84233030464995) translate(13.49499999999999 15.080000000000004)"/></g><defs><path d="M79 0v-560h120l10 75h4c47-49 99-89 172-89 80 0 127 36 154 98 51-54 105-98 178-98 119 0 174 84 174 225V0H744v-331c2-158-116-137-186-54V0H411v-331c2-158-116-137-186-54V0H79" id="k"/><path d="M217 14C117 14 51-57 51-152c0-120 97-183 322-207-2-55-26-97-95-97-52 0-102 23-154 53l-53-97c66-41 146-74 234-74 142 0 215 85 215 247V0H400l-11-60h-3c-49 42-105 74-169 74zm48-115c42 0 73-20 108-55v-113c-136 18-182 55-182 105 0 44 31 63 74 63" id="l"/><path d="M79 0v-560h146V0H79zm74-650c-51 0-88-34-88-80 0-48 37-80 88-80 50 0 87 32 87 80 0 46-37 80-87 80" id="m"/><path d="M79 0v-560h120l10 74h4c49-48 106-88 182-88 121 0 173 84 173 225V0H421v-331c0-86-24-117-79-117-46 0-75 22-117 63V0H79" id="n"/><g id="a"><use transform="matrix(0.013000000000000013,0,0,0.013000000000000013,0,0)" xlink:href="#k"/><use transform="matrix(0.013000000000000013,0,0,0.013000000000000013,12.532000000000012,0)" xlink:href="#l"/><use transform="matrix(0.013000000000000013,0,0,0.013000000000000013,20.21500000000002,0)" xlink:href="#m"/><use transform="matrix(0.013000000000000013,0,0,0.013000000000000013,24.167000000000026,0)" xlink:href="#n"/></g><path d="M91 0v-740h203c226 0 366 117 366 367C660-124 520 0 302 0H91zm148-119c173 11 270-55 270-254 0-200-98-259-270-249v503" id="o"/><path d="M313 14C173 14 44-94 44-279c0-187 129-295 269-295s269 108 269 295C582-94 453 14 313 14zm0-120c76 0 119-68 119-173 0-106-43-175-119-175s-119 69-119 175c0 105 43 173 119 173" id="p"/><g id="b"><use transform="matrix(0.013000000000000003,0,0,0.013000000000000003,0,0)" xlink:href="#o"/><use transform="matrix(0.013000000000000003,0,0,0.013000000000000003,9.282000000000002,0)" xlink:href="#p"/><use transform="matrix(0.013000000000000003,0,0,0.013000000000000003,17.42,0)" xlink:href="#k"/><use transform="matrix(0.013000000000000003,0,0,0.013000000000000003,29.952000000000005,0)" xlink:href="#l"/><use transform="matrix(0.013000000000000003,0,0,0.013000000000000003,37.635000000000005,0)" xlink:href="#m"/><use transform="matrix(0.013000000000000003,0,0,0.013000000000000003,41.587,0)" xlink:href="#n"/></g><path d="M230-305h176c-30-106-59-214-87-323h-4c-25 110-56 217-85 323zM490 0l-52-190H198L146 0H-4l237-740h174L645 0H490" id="q"/><path d="M79 215v-775h120l10 58h4c47-40 105-72 165-72 138 0 220 113 220 285C598-31 384 98 221-47c5 83 4 173 4 262H79zm146-364c108 87 221 41 222-138 0-107-34-166-111-166-38 0-72 19-111 58v246" id="r"/><path d="M217 14C115 14 79-53 79-157v-641h146v648c4 43 18 48 50 42L293 1c-17 7-42 13-76 13" id="s"/><path d="M317 14C162 14 44-94 44-279c0-187 134-295 286-295 69 0 122 27 163 62l-70 95c-97-88-229-8-229 138 0 162 149 221 248 128l58 97C447-7 379 14 317 14" id="t"/><path d="M284 14c-133 0-184-84-184-210v-248H21v-109l86-7 17-150h123v150h138v116H247v248c-6 90 65 110 131 82L402-7c-30 10-69 21-118 21" id="u"/><g id="c"><use transform="matrix(0.013000000000000003,0,0,0.013000000000000003,0,0)" xlink:href="#q"/><use transform="matrix(0.013000000000000003,0,0,0.013000000000000003,8.333000000000002,0)" xlink:href="#r"/><use transform="matrix(0.013000000000000003,0,0,0.013000000000000003,16.705000000000005,0)" xlink:href="#r"/><use transform="matrix(0.013000000000000003,0,0,0.013000000000000003,25.077000000000005,0)" xlink:href="#s"/><use transform="matrix(0.013000000000000003,0,0,0.013000000000000003,29.172000000000008,0)" xlink:href="#m"/><use transform="matrix(0.013000000000000003,0,0,0.013000000000000003,33.124,0)" xlink:href="#t"/><use transform="matrix(0.013000000000000003,0,0,0.013000000000000003,39.975,0)" xlink:href="#l"/><use transform="matrix(0.013000000000000003,0,0,0.013000000000000003,47.658,0)" xlink:href="#u"/><use transform="matrix(0.013000000000000003,0,0,0.013000000000000003,53.118,0)" xlink:href="#m"/><use transform="matrix(0.013000000000000003,0,0,0.013000000000000003,57.07,0)" xlink:href="#p"/><use transform="matrix(0.013000000000000003,0,0,0.013000000000000003,65.208,0)" xlink:href="#n"/></g><path d="M91 0v-740h148V0H91" id="v"/><path d="M405-792l-27 108c-66-25-131-16-127 76v48h105v116H251V0H104v-444H29v-109l75-6c-9-147 37-250 195-253 43 0 81 10 106 20" id="w"/><path d="M79 0v-560h120l10 99h4c56-93 126-135 225-101l-26 127c-91-24-138-1-187 101V0H79" id="x"/><path d="M239 14C164 14 81-19 26-65l67-92c50 39 98 61 150 61 56 0 81-24 81-59 0-42-58-61-117-84-71-27-153-70-153-163 0-101 82-172 208-172 82 0 144 34 191 69l-66 89c-40-28-79-48-121-48-50 0-74 22-74 54 0 41 55 56 114 78 74 28 156 65 156 169 0 98-77 177-223 177" id="y"/><path d="M245 14C125 14 73-70 73-210v-350h147v331c0 87 24 117 78 117 46 0 76-20 114-70v-378h147V0H439l-11-80h-4c-48 57-102 94-179 94" id="z"/><path d="M322 14C166 14 44-95 44-279c0-182 127-295 261-295 176-3 258 155 227 335H187C198-93 362-65 468-138l50 90c-55 38-126 62-196 62zM185-336h228c0-76-34-124-106-124-59 0-111 42-122 124" id="A"/><g id="d"><use transform="matrix(0.013000000000000003,0,0,0.013000000000000003,0,0)" xlink:href="#v"/><use transform="matrix(0.013000000000000003,0,0,0.013000000000000003,4.290000000000001,0)" xlink:href="#n"/><use transform="matrix(0.013000000000000003,0,0,0.013000000000000003,12.623000000000003,0)" xlink:href="#w"/><use transform="matrix(0.013000000000000003,0,0,0.013000000000000003,17.459000000000003,0)" xlink:href="#x"/><use transform="matrix(0.013000000000000003,0,0,0.013000000000000003,23.127000000000002,0)" xlink:href="#l"/><use transform="matrix(0.013000000000000003,0,0,0.013000000000000003,30.810000000000002,0)" xlink:href="#y"/><use transform="matrix(0.013000000000000003,0,0,0.013000000000000003,37.245000000000005,0)" xlink:href="#u"/><use transform="matrix(0.013000000000000003,0,0,0.013000000000000003,42.705000000000005,0)" xlink:href="#x"/><use transform="matrix(0.013000000000000003,0,0,0.013000000000000003,48.373000000000005,0)" xlink:href="#z"/><use transform="matrix(0.013000000000000003,0,0,0.013000000000000003,56.65400000000001,0)" xlink:href="#t"/><use transform="matrix(0.013000000000000003,0,0,0.013000000000000003,63.50500000000002,0)" xlink:href="#u"/><use transform="matrix(0.013000000000000003,0,0,0.013000000000000003,68.965,0)" xlink:href="#z"/><use transform="matrix(0.013000000000000003,0,0,0.013000000000000003,77.24600000000001,0)" xlink:href="#x"/><use transform="matrix(0.013000000000000003,0,0,0.013000000000000003,82.91400000000002,0)" xlink:href="#A"/></g><path d="M360 13C211 13 97-67 97-303v-430h93v433c0 177 75 232 170 232 98 0 175-55 175-232v-433h89v430C624-67 510 13 360 13" id="B"/><path d="M234 13C157 13 83-19 31-62l45-60c47 38 96 64 161 64 72 0 107-38 107-85 0-55-64-80-124-103-76-28-162-65-162-157 0-86 69-154 187-154 67 0 126 28 169 61l-44 59c-38-28-76-48-125-48-68 0-99 36-99 78 0 52 59 71 120 94 79 30 166 62 166 165 0 88-70 161-198 161" id="C"/><path d="M311 13C167 13 51-92 51-271c0-176 119-286 245-286 154-3 234 132 212 307H142c6 116 77 190 180 190 53 0 96-16 136-43l33 60c-48 31-106 56-180 56zM141-315h291c0-110-50-169-135-169-77 0-145 62-156 169" id="D"/><g id="e"><use transform="matrix(0.013000000000000003,0,0,0.013000000000000003,0,0)" xlink:href="#B"/><use transform="matrix(0.013000000000000003,0,0,0.013000000000000003,9.373000000000003,0)" xlink:href="#C"/><use transform="matrix(0.013000000000000003,0,0,0.013000000000000003,15.457000000000004,0)" xlink:href="#D"/></g><path d="M306 13C162 13 51-91 51-271c0-181 123-286 262-286 71 0 120 30 159 64l-47 61c-32-29-65-49-109-49-98 0-170 85-170 210S214-63 314-63c50 0 94-23 128-54l39 61c-48 44-110 69-175 69" id="E"/><path d="M217 13C126 13 58-43 58-141c0-118 103-177 334-203 0-70-23-137-112-137-63 0-120 29-163 58l-36-63c50-32 127-71 214-71 132 0 188 89 188 223V0h-75l-8-65h-3c-52 43-113 78-180 78zm26-73c53 0 96-25 149-72v-152c-183 22-245 67-245 137 0 62 42 87 96 87" id="F"/><g id="f"><use transform="matrix(0.013000000000000003,0,0,0.013000000000000003,0,0)" xlink:href="#E"/><use transform="matrix(0.013000000000000003,0,0,0.013000000000000003,6.617000000000002,0)" xlink:href="#F"/><use transform="matrix(0.013000000000000003,0,0,0.013000000000000003,13.949000000000003,0)" xlink:href="#C"/><use transform="matrix(0.013000000000000003,0,0,0.013000000000000003,20.033000000000005,0)" xlink:href="#D"/><use transform="matrix(0.013000000000000003,0,0,0.013000000000000003,27.235000000000007,0)" xlink:href="#C"/></g><path d="M193-658v272h123c115 0 178-46 178-141 0-97-63-131-178-131H193zM608 0H503L325-311H193V0h-93v-733h230c149 0 256 53 256 206 0 114-66 182-166 206" id="G"/><path d="M92 229v-772h75l8 62h3c49-40 110-76 173-76 140 0 216 110 216 277C567-22 349 94 181-50c3 91 2 185 2 279H92zm91-349C317-1 471-73 472-279c0-120-40-201-143-201-46 0-93 26-146 75v285" id="H"/><path d="M303 13C170 13 51-91 51-271c0-181 119-286 252-286s252 105 252 286C555-91 436 13 303 13zm0-76c94 0 158-83 158-208s-64-210-158-210-157 85-157 210S209-63 303-63" id="I"/><path d="M92 0v-543h91V0H92zm46-655c-36 0-63-25-63-59 0-37 27-59 63-59s63 22 63 59c0 34-27 59-63 59" id="J"/><path d="M263 13c-116 0-155-72-155-181v-301H27v-69l85-5 11-152h76v152h147v74H199v303c0 67 21 105 84 105 19 0 44-7 62-14l18 68c-31 10-67 20-100 20" id="K"/><path d="M92 0v-543h75l8 99h3c50-86 117-137 212-101l-17 80c-18-7-31-9-53-9-45 0-101 32-137 125V0H92" id="L"/><path d="M303 45C261 172 181 266 37 223l18-73C155 188 210 96 231 1L13-543h95c55 152 111 298 163 454h5c45-155 95-303 143-454h89" id="M"/><g id="g"><use transform="matrix(0.013000000000000003,0,0,0.013000000000000003,0,0)" xlink:href="#G"/><use transform="matrix(0.013000000000000003,0,0,0.013000000000000003,8.255000000000003,0)" xlink:href="#D"/><use transform="matrix(0.013000000000000003,0,0,0.013000000000000003,15.457000000000004,0)" xlink:href="#H"/><use transform="matrix(0.013000000000000003,0,0,0.013000000000000003,23.517000000000007,0)" xlink:href="#I"/><use transform="matrix(0.013000000000000003,0,0,0.013000000000000003,31.395000000000014,0)" xlink:href="#C"/><use transform="matrix(0.013000000000000003,0,0,0.013000000000000003,37.47900000000001,0)" xlink:href="#J"/><use transform="matrix(0.013000000000000003,0,0,0.013000000000000003,41.054000000000016,0)" xlink:href="#K"/><use transform="matrix(0.013000000000000003,0,0,0.013000000000000003,45.95500000000002,0)" xlink:href="#I"/><use transform="matrix(0.013000000000000003,0,0,0.013000000000000003,53.83300000000003,0)" xlink:href="#L"/><use transform="matrix(0.013000000000000003,0,0,0.013000000000000003,58.877000000000024,0)" xlink:href="#M"/></g><path d="M100 0v-733h93V0h-93" id="N"/><path d="M92 0v-543h75l8 78h3c52-51 108-92 182-92 114 0 166 74 166 213V0h-91v-332c0-102-31-145-103-145-56 0-94 28-149 83V0H92" id="O"/><path d="M356-791l-20 69c-75-34-144-8-138 93v86h115v74H198V0h-91v-469H33v-69l74-5v-87c0-110 50-179 158-179 33 0 65 7 91 18" id="P"/><g id="h"><use transform="matrix(0.013000000000000003,0,0,0.013000000000000003,0,0)" xlink:href="#N"/><use transform="matrix(0.013000000000000003,0,0,0.013000000000000003,3.809000000000001,0)" xlink:href="#O"/><use transform="matrix(0.013000000000000003,0,0,0.013000000000000003,11.752000000000002,0)" xlink:href="#K"/><use transform="matrix(0.013000000000000003,0,0,0.013000000000000003,16.653000000000002,0)" xlink:href="#D"/><use transform="matrix(0.013000000000000003,0,0,0.013000000000000003,23.855000000000004,0)" xlink:href="#L"/><use transform="matrix(0.013000000000000003,0,0,0.013000000000000003,28.899000000000008,0)" xlink:href="#P"/><use transform="matrix(0.013000000000000003,0,0,0.013000000000000003,33.124,0)" xlink:href="#F"/><use transform="matrix(0.013000000000000003,0,0,0.013000000000000003,40.456,0)" xlink:href="#E"/><use transform="matrix(0.013000000000000003,0,0,0.013000000000000003,47.07300000000001,0)" xlink:href="#D"/><use transform="matrix(0.013000000000000003,0,0,0.013000000000000003,54.275,0)" xlink:href="#C"/></g><path d="M92 0v-543h75l8 79h3c47-52 104-93 169-93 83 0 128 40 150 104 56-61 113-104 179-104 112 0 165 74 165 213V0h-91v-332c0-102-32-145-101-145-42 0-86 27-137 83V0h-91v-332c0-102-32-145-101-145-41 0-87 27-137 83V0H92" id="Q"/><path d="M277 13C141 13 53-90 53-271c-5-249 231-368 388-222-8-95-4-201-5-303h91V0h-74c-4-21-4-46-11-64-43 42-100 77-165 77zm20-76c50 0 94-25 139-75v-285c-123-120-291-42-289 151 0 131 54 209 150 209" id="R"/><path d="M241 5C155 32 92-8 92-108v-688h91v694c3 37 15 43 45 37" id="S"/><g id="i"><use transform="matrix(0.013000000000000003,0,0,0.013000000000000003,0,0)" xlink:href="#Q"/><use transform="matrix(0.013000000000000003,0,0,0.013000000000000003,12.038000000000002,0)" xlink:href="#I"/><use transform="matrix(0.013000000000000003,0,0,0.013000000000000003,19.916000000000004,0)" xlink:href="#R"/><use transform="matrix(0.013000000000000003,0,0,0.013000000000000003,27.976000000000006,0)" xlink:href="#D"/><use transform="matrix(0.013000000000000003,0,0,0.013000000000000003,35.17800000000001,0)" xlink:href="#S"/><use transform="matrix(0.013000000000000003,0,0,0.013000000000000003,38.88300000000001,0)" xlink:href="#C"/></g><path d="M92 0v-796h91c0 111 1 223-3 330 50-50 106-91 180-91 114 0 166 74 166 213V0h-91v-332c0-102-31-145-103-145-56 0-94 28-149 83V0H92" id="T"/><path d="M11 179l300-972h66L78 179H11" id="U"/><path d="M250 13C136 13 85-61 85-199v-344h91v333c0 101 30 144 102 144 56 0 95-27 147-92v-385h91V0h-76l-7-85h-3c-51 59-105 98-180 98" id="V"/><g id="j"><use transform="matrix(0.013000000000000003,0,0,0.013000000000000003,0,0)" xlink:href="#T"/><use transform="matrix(0.013000000000000003,0,0,0.013000000000000003,7.891000000000002,0)" xlink:href="#K"/><use transform="matrix(0.013000000000000003,0,0,0.013000000000000003,12.792000000000002,0)" xlink:href="#K"/><use transform="matrix(0.013000000000000003,0,0,0.013000000000000003,17.693,0)" xlink:href="#H"/><use transform="matrix(0.013000000000000003,0,0,0.013000000000000003,25.753000000000004,0)" xlink:href="#U"/><use transform="matrix(0.013000000000000003,0,0,0.013000000000000003,30.849,0)" xlink:href="#H"/><use transform="matrix(0.013000000000000003,0,0,0.013000000000000003,38.909000000000006,0)" xlink:href="#D"/><use transform="matrix(0.013000000000000003,0,0,0.013000000000000003,46.111000000000004,0)" xlink:href="#L"/><use transform="matrix(0.013000000000000003,0,0,0.013000000000000003,51.15500000000001,0)" xlink:href="#C"/><use transform="matrix(0.013000000000000003,0,0,0.013000000000000003,57.23900000000001,0)" xlink:href="#J"/><use transform="matrix(0.013000000000000003,0,0,0.013000000000000003,60.814000000000014,0)" xlink:href="#C"/><use transform="matrix(0.013000000000000003,0,0,0.013000000000000003,66.89800000000001,0)" xlink:href="#K"/><use transform="matrix(0.013000000000000003,0,0,0.013000000000000003,71.799,0)" xlink:href="#D"/><use transform="matrix(0.013000000000000003,0,0,0.013000000000000003,79.001,0)" xlink:href="#O"/><use transform="matrix(0.013000000000000003,0,0,0.013000000000000003,86.944,0)" xlink:href="#E"/><use transform="matrix(0.013000000000000003,0,0,0.013000000000000003,93.561,0)" xlink:href="#D"/><use transform="matrix(0.013000000000000003,0,0,0.013000000000000003,100.763,0)" xlink:href="#U"/><use transform="matrix(0.013000000000000003,0,0,0.013000000000000003,105.85900000000001,0)" xlink:href="#E"/><use transform="matrix(0.013000000000000003,0,0,0.013000000000000003,112.47600000000003,0)" xlink:href="#S"/><use transform="matrix(0.013000000000000003,0,0,0.013000000000000003,116.181,0)" xlink:href="#I"/><use transform="matrix(0.013000000000000003,0,0,0.013000000000000003,124.059,0)" xlink:href="#V"/><use transform="matrix(0.013000000000000003,0,0,0.013000000000000003,131.95000000000002,0)" xlink:href="#R"/></g></defs></g></svg>